<?xml version="1.0" encoding="UTF-8" standalone="no"?>
<!-- Uploaded to: SVG Repo, www.svgrepo.com, Generator: SVG Repo Mixer Tools -->

<svg
   width="800px"
   height="800px"
   viewBox="0 0 48 48"
   id="a"
   version="1.1"
   sodipodi:docname="epson-iprint-svgrepo-com.svg"
   inkscape:version="1.2.2 (b0a8486541, 2022-12-01)"
   xmlns:inkscape="http://www.inkscape.org/namespaces/inkscape"
   xmlns:sodipodi="http://sodipodi.sourceforge.net/DTD/sodipodi-0.dtd"
   xmlns="http://www.w3.org/2000/svg"
   xmlns:svg="http://www.w3.org/2000/svg">
  <sodipodi:namedview
     id="namedview15"
     pagecolor="#ffffff"
     bordercolor="#000000"
     borderopacity="0.25"
     inkscape:showpageshadow="2"
     inkscape:pageopacity="0.0"
     inkscape:pagecheckerboard="0"
     inkscape:deskcolor="#d1d1d1"
     showgrid="false"
     inkscape:zoom="0.64125"
     inkscape:cx="399.22027"
     inkscape:cy="400.77973"
     inkscape:window-width="1366"
     inkscape:window-height="675"
     inkscape:window-x="0"
     inkscape:window-y="0"
     inkscape:window-maximized="1"
     inkscape:current-layer="a" />
  <defs
     id="defs4">
    <style
       id="style2">.j{fill:none;stroke:#000000;stroke-linecap:round;stroke-linejoin:round;}</style>
  </defs>
  <g
     id="b"
     style="fill:none;stroke:#003f98;stroke-opacity:1">
    <path
       id="c"
       class="j"
       d="m12.4947,20.7496l.0008,7.0294-5.8874-.0155c-1.1643,0-2.1081-.9438-2.1081-2.1081v-11.2784c0-1.1643.9438-2.1081,2.1081-2.1081h34.7838c1.1643,0,2.1081.9438,2.1081,2.1081v11.2784c0,1.1643-.9438,2.1081-2.1081,2.1081l-6.2778.0216-.0191-7.0354"
       style="fill:none;stroke:#003f98;stroke-opacity:1" />
    <path
       id="d"
       class="j"
       d="m30.6347,22.6277h-13.4288c-1.1643,0-2.1081.9438-2.1081,2.1081v8.8873c0,1.1643.9438,2.1081,2.1081,2.1081h13.4288c1.1643,0,2.1081-.9438,2.1081-2.1081v-8.8873c0-1.1643-.9438-2.1081-2.1081-2.1081Z"
       style="fill:none;stroke:#003f98;stroke-opacity:1" />
    <path
       id="e"
       class="j"
       d="m4.5271,20.6085h38.7507"
       style="fill:none;stroke:#003f98;stroke-opacity:1" />
    <path
       id="f"
       class="j"
       d="m17.8251,25.9627h12.0871"
       style="fill:none;stroke:#003f98;stroke-opacity:1" />
    <path
       id="g"
       class="j"
       d="m17.8251,29.1487h12.0871"
       style="fill:none;stroke:#003f98;stroke-opacity:1" />
    <path
       id="h"
       class="j"
       d="m17.8251,32.3346h12.0871"
       style="fill:none;stroke:#003f98;stroke-opacity:1" />
  </g>
  <g
     transform="matrix(0.06,0,0,0.06,1.7620191,-17.078768)"
     id="layer1">
    <g
       transform="matrix(2.6281465,0,0,-2.6281465,438.2711,583.07067)"
       id="g3414">
      <path
         id="path3416"
         style="fill:#003f98;fill-opacity:1;fill-rule:nonzero;stroke:none"
         d="m 0,0 c -4.881,0 -6.762,4.493 -6.762,9.059 0,4.566 1.881,9.056 6.762,9.056 4.876,0 6.762,-4.49 6.762,-9.056 C 6.762,4.493 4.876,0 0,0 m 0,22.708 c -7.686,0 -12.124,-5.759 -12.124,-13.649 0,-7.893 4.438,-13.651 12.124,-13.651 7.682,0 12.119,5.758 12.119,13.651 0,7.89 -4.437,13.649 -12.119,13.649" />
    </g>
    <g
       transform="matrix(2.6281465,0,0,-2.6281465,231.98971,525.40283)"
       id="g3418">
      <path
         id="path3420"
         style="fill:#003f98;fill-opacity:1;fill-rule:nonzero;stroke:none"
         d="M 0,0 H 19.259 V -4.594 H 5.357 v -5.714 h 12.964 v -4.478 H 5.357 v -6.391 h 13.902 v -4.592 H 0 Z" />
    </g>
    <g
       transform="matrix(2.6281465,0,0,-2.6281465,315.46174,560.74167)"
       id="g3422">
      <path
         id="path3424"
         style="fill:#003f98;fill-opacity:1;fill-rule:nonzero;stroke:none"
         d="M 0,0 H -4.85 V 8.853 8.858 H 0 c 3.371,0 5.613,-1.467 5.613,-4.43 C 5.613,1.466 3.371,0 0,0 M -10.205,-12.322 H -4.85 V -4.59 H 0 c 6.564,0 10.969,3.224 10.969,9.018 0,5.795 -4.405,9.018 -10.969,9.018 h -10.205 z" />
    </g>
    <g
       transform="matrix(2.6281465,0,0,-2.6281465,489.89471,525.40283)"
       id="g3426">
      <path
         id="path3428"
         style="fill:#003f98;fill-opacity:1;fill-rule:nonzero;stroke:none"
         d="m 0,0 h -5.5 v -25.769 h 5.252 v 10.438 c 0,2.857 -0.102,5.391 -0.199,7.632 0.619,-1.29 2.5,-5.166 3.367,-6.622 l 6.836,-11.448 h 5.5 V 0 h -5.252 v -10.177 c 0,-2.854 0.105,-5.654 0.199,-7.89 -0.619,1.29 -2.495,5.164 -3.375,6.618 z" />
    </g>
    <g
       transform="matrix(2.6281465,0,0,-2.6281465,360.27875,570.72049)"
       id="g3430">
      <path
         id="path3432"
         style="fill:#003f98;fill-opacity:1;fill-rule:nonzero;stroke:none"
         d="m 0,0 c 0,-3.463 2.881,-4.809 5.945,-4.809 2,0 5.248,0.58 5.248,3.24 0,2.809 -3.968,3.34 -7.797,4.359 -4.015,1.063 -7.882,2.569 -7.882,7.344 0,5.323 5.035,7.875 9.738,7.875 5.43,0 10.424,-2.37 10.424,-8.384 h -5.358 c -0.182,3.134 -2.588,3.938 -5.322,3.938 -1.824,0 -4.121,-0.766 -4.121,-2.956 0,-2.004 1.311,-2.313 7.832,-3.992 1.898,-0.474 7.845,-1.622 7.845,-7.525 0,-4.778 -3.755,-8.347 -10.831,-8.347 -5.756,0 -11.151,2.841 -11.08,9.257 z" />
    </g>
  </g>
</svg>
